<?xml version="1.0" standalone="no"?>
<!DOCTYPE svg PUBLIC "-//W3C//DTD SVG 20010904//EN"
 "http://www.w3.org/TR/2001/REC-SVG-20010904/DTD/svg10.dtd">
<svg version="1.0" xmlns="http://www.w3.org/2000/svg"
 width="512.000000pt" height="512.000000pt" viewBox="0 0 512.000000 512.000000"
 preserveAspectRatio="xMidYMid meet">
<metadata>
Created by potrace 1.11, written by Peter Selinger 2001-2013
</metadata>
<g transform="translate(0.000000,512.000000) scale(0.100000,-0.100000)"
fill="#000000" stroke="none">
<path d="M2218 4655 c-2 -2 -37 -5 -78 -9 -41 -3 -86 -8 -100 -10 -14 -3 -54
-10 -89 -16 -169 -30 -417 -119 -581 -208 -68 -37 -184 -108 -210 -129 -8 -6
-51 -40 -95 -74 -273 -215 -513 -541 -634 -864 -13 -33 -27 -69 -32 -80 -21
-49 -72 -269 -84 -360 -3 -22 -8 -65 -12 -95 -13 -101 -7 -371 11 -489 34
-227 110 -465 208 -651 69 -130 82 -153 95 -167 6 -7 21 -29 34 -50 13 -21 26
-40 29 -43 3 -3 23 -27 43 -53 20 -27 60 -76 89 -110 29 -33 52 -64 51 -69 -2
-4 1 -7 5 -5 5 1 36 -23 69 -53 177 -162 289 -240 498 -345 175 -87 391 -160
540 -181 95 -14 89 -18 90 63 l1 72 -55 11 c-512 101 -917 359 -1219 776 -29
40 -52 74 -52 77 0 3 -14 26 -30 51 -34 49 -130 249 -130 269 0 7 -4 17 -9 23
-19 20 -90 285 -105 394 -15 107 -18 152 -18 265 -1 135 9 253 27 350 22 111
70 281 100 350 7 17 24 58 39 91 44 102 119 231 197 338 87 119 276 319 293
309 6 -3 8 -3 4 2 -17 18 213 181 365 259 56 28 120 59 142 68 56 24 244 85
280 91 17 3 62 13 100 21 199 43 496 41 718 -4 504 -102 942 -400 1227 -835
139 -213 260 -543 287 -788 10 -84 10 -408 0 -482 -11 -83 -35 -197 -57 -266
-10 -33 -15 -60 -11 -60 3 -1 39 -2 79 -3 l72 -2 10 36 c17 59 49 221 59 300
10 77 7 433 -4 505 -6 36 -29 162 -41 223 -3 13 -23 78 -45 145 -23 67 -41
128 -42 135 0 6 -4 12 -9 12 -4 0 -8 5 -8 11 0 6 -24 60 -54 120 -30 60 -51
109 -48 109 4 0 2 4 -5 8 -6 4 -38 48 -70 97 -320 487 -816 804 -1408 900 -81
14 -417 29 -427 20z"/>
<path d="M1660 4073 c-14 -3 -16 -53 -15 -409 0 -223 -3 -408 -7 -410 -16 -10
-80 -6 -91 5 -9 9 -12 109 -12 391 l0 379 -25 -6 c-36 -8 -89 -51 -102 -81
-15 -37 -18 -1016 -3 -1053 21 -53 60 -91 122 -120 34 -16 65 -29 68 -29 3 0
25 -8 48 -18 23 -10 61 -27 84 -36 31 -14 41 -23 38 -38 -2 -10 -7 -54 -11
-96 -3 -42 -7 -79 -9 -82 -2 -3 -6 -50 -10 -105 -4 -55 -8 -116 -10 -135 -2
-19 -6 -80 -10 -135 -4 -55 -8 -116 -10 -135 -2 -19 -6 -98 -10 -175 -4 -77
-8 -156 -10 -175 -2 -19 -7 -107 -10 -195 -4 -88 -8 -181 -9 -207 -6 -116 59
-190 165 -190 62 1 112 33 140 89 19 40 20 54 15 197 -4 85 -8 185 -11 222 -2
38 -7 121 -10 184 -3 63 -8 140 -10 170 -2 30 -7 98 -10 150 -3 52 -8 113 -10
135 -2 22 -7 78 -10 125 -3 47 -8 103 -10 125 -3 22 -7 67 -10 100 -3 33 -8
83 -11 111 l-6 51 109 38 c128 45 170 65 212 101 67 56 65 38 66 574 1 517 -1
548 -47 597 -24 27 -84 57 -96 49 -4 -2 -7 -51 -7 -108 0 -60 -4 -106 -10
-110 -7 -5 -7 -8 0 -8 15 0 13 -536 -2 -551 -13 -13 -89 -16 -101 -5 -3 4 -7
189 -7 411 0 456 9 412 -80 411 l-40 -1 0 -402 c0 -295 -3 -405 -12 -414 -17
-17 -94 -15 -107 3 -8 10 -11 142 -11 417 l0 401 -40 -2 c-22 -1 -47 -3 -55
-5z"/>
<path d="M2776 3048 c1 -552 2 -1005 3 -1008 0 -3 101 -5 223 -5 l222 0 18 70
c23 91 30 139 44 283 14 144 8 494 -10 602 -2 14 -7 48 -11 75 -21 163 -103
447 -171 595 -33 70 -121 229 -134 240 -3 3 -21 25 -40 49 -32 42 -111 101
-135 101 -7 0 -10 -294 -9 -1002z"/>
<path d="M2327 1879 c-41 -11 -75 -39 -94 -78 -17 -35 -19 -73 -18 -642 0
-583 1 -605 20 -637 11 -18 36 -43 55 -55 35 -22 37 -22 615 -22 384 0 582 -3
587 -10 5 -6 8 -6 8 0 0 7 214 10 622 10 586 0 625 1 660 18 21 11 48 35 60
55 l23 37 0 610 c0 591 -1 611 -20 643 -11 18 -36 43 -55 55 l-35 22 -1202 0
c-661 0 -1212 -2 -1226 -6z m334 -318 c3 -7 4 -119 3 -248 l-2 -235 32 39 c27
33 64 74 178 198 25 28 31 29 112 30 47 1 86 -2 86 -5 0 -4 -10 -18 -23 -31
-12 -13 -62 -68 -111 -122 l-89 -98 34 -47 c30 -42 51 -71 132 -176 60 -79 78
-106 70 -107 -4 0 -45 -2 -90 -3 l-83 -2 -82 115 c-45 64 -83 118 -85 120 -3
5 -45 -23 -65 -42 -11 -11 -14 -37 -13 -97 2 -95 1 -96 -97 -95 l-62 0 -1 395
c0 217 1 402 3 411 5 21 144 22 153 0z m1879 10 c13 -1 15 -53 15 -406 0 -223
-2 -406 -5 -406 -14 -3 -136 -5 -145 -2 -7 2 -10 145 -9 406 1 221 2 404 3
407 1 4 93 5 141 1z m-1129 -223 c0 -9 2 -9 5 -2 6 15 83 9 151 -12 l51 -16
-13 -37 c-35 -97 -30 -92 -68 -76 -50 21 -127 25 -160 8 -43 -22 -69 -88 -66
-171 4 -124 41 -168 138 -165 31 0 79 10 106 21 l50 20 0 -66 0 -66 -43 -19
c-55 -23 -180 -29 -242 -11 -107 31 -170 130 -172 269 -3 189 61 289 209 324
53 12 53 12 54 -1z m702 -16 c55 -25 87 -62 101 -115 6 -25 11 -132 11 -252
l0 -209 -50 -1 c-54 -1 -75 8 -75 34 0 9 -4 22 -9 30 -8 12 -16 8 -46 -18 -46
-40 -76 -52 -140 -55 -132 -7 -205 59 -205 184 0 99 61 162 170 177 19 2 44 6
55 8 11 2 48 4 81 4 l62 1 -5 38 c-3 20 -13 45 -23 55 -25 26 -93 29 -165 6
-33 -10 -63 -19 -66 -19 -12 0 -51 102 -42 110 9 8 106 37 143 43 54 8 162 -3
203 -21z"/>
<path d="M3950 1018 c-71 -12 -103 -61 -79 -120 13 -31 49 -43 103 -32 38 7
85 52 87 82 1 9 2 31 4 49 2 30 1 31 -34 30 -20 -1 -56 -5 -81 -9z"/>
</g>
</svg>
